<?xml version="1.0" encoding="UTF-8"?>
<svg id="Layer_7_Image" data-name="Layer 7 Image" xmlns="http://www.w3.org/2000/svg" viewBox="0 0 104.89 142.7">
  <defs>
    <style>
      .cls-1 {
        fill: #262626;
        stroke-width: 0px;
      }
    </style>
  </defs>
  <path class="cls-1" d="m49.9,0h5.03c.04.16.17.13.29.13,1.63.07,3.23.29,4.83.57,4.71.84,9.1,2.5,13.17,5,3.99,2.45,7.44,5.51,10.48,9.06,2.36,2.76,4.34,5.76,5.87,9.04,2.45,5.24,3.64,10.76,3.64,16.54,0,4.41.01,8.83-.06,13.24,0,.51-.1,1-.22,1.49-.6,2.35-3.01,4.37-5.69,4.29-1.87-.05-3.74,0-5.61-.01-.41,0-.82,0-1.22-.08-2.79-.56-4.76-3.26-4.7-5.82.1-4.49.03-8.97.03-13.46,0-1.13-.09-2.25-.28-3.36-.57-3.3-1.81-6.33-3.75-9.06-2.33-3.27-5.24-5.9-8.83-7.71-4.76-2.4-9.81-2.9-15-1.97-4.41.79-8.21,2.86-11.45,5.97-2.92,2.8-5.09,6.06-6.31,9.95-.7,2.23-1.02,4.53-1.03,6.86-.03,6.17-.01,12.33-.01,18.5,0,4.2,0,8.4,0,12.6,0,.17,0,.34,0,.5-.02.31.12.44.43.41.19-.01.38,0,.57,0,13.97-.01,27.94-.03,41.91-.03,2.37,0,4.74.03,7.11.03,5.58,0,11.16,0,16.74,0,.57,0,1.16-.01,1.72.08,4.2.64,7.42,4.47,7.31,8.64-.08,3.05-.02,6.1-.02,9.14,0,14.49-.03,28.99.02,43.48.01,4.09-3.04,7.42-6.13,8.28-.52.14-1.07.12-1.55.4H7.63c-.03-.11-.12-.12-.22-.14-1.71-.22-3.2-.96-4.48-2.1C.9,138.65,0,136.34,0,133.64c0-8.47,0-16.94,0-25.41,0-8.86,0-17.71,0-26.57,0-1.97.46-3.79,1.67-5.38,1.65-2.18,3.78-3.47,6.56-3.57,1.01-.03,2.01-.03,3.02-.02.3,0,.46-.07.43-.4-.01-.17,0-.34,0-.5,0-4.68-.02-9.36-.02-14.04,0-5.3.02-10.61.01-15.91,0-2.59.14-5.17.54-7.73.53-3.45,1.52-6.76,2.96-9.93,2.11-4.62,5.05-8.66,8.65-12.23,3.14-3.12,6.64-5.75,10.6-7.75,4.32-2.18,8.88-3.47,13.69-3.95.59-.06,1.23.06,1.79-.24Z"/>
</svg>