<?xml version="1.0" encoding="UTF-8"?>
<svg id="Layer_1_Image" data-name="Layer 1 Image" xmlns="http://www.w3.org/2000/svg" viewBox="0 0 104.9 128.45">
  <defs>
    <style>
      .cls-1 {
        fill: #ffffff;
        stroke-width: 0px;
      }
    </style>
  </defs>
  <path class="cls-1" d="m49.91,0h5.03c.04.16.17.13.29.13,1.63.07,3.23.29,4.83.57,4.71.84,9.1,2.5,13.17,5,3.99,2.45,7.44,5.51,10.48,9.06,2.36,2.76,4.33,5.76,5.87,9.04,2.46,5.24,3.62,10.77,3.64,16.55.02,5.71,0,11.42,0,17.13,0,.19.01.38,0,.58,0,.24.08.36.33.35.17,0,.34,0,.5,0,1.17.02,2.36-.09,3.52.08,4.2.63,7.42,4.47,7.31,8.64-.08,3.21-.02,6.43-.02,9.65,0,14.33-.03,28.65.02,42.98.01,4.09-3.04,7.42-6.13,8.28-.52.14-1.07.12-1.55.4H7.63c-.07-.18-.23-.12-.37-.14-2.06-.35-3.78-1.34-5.14-2.91C.61,123.66,0,121.6,0,119.31c0-17.11,0-34.22,0-51.33,0-.77.04-1.53.13-2.29.41-3.27,3.44-6.48,6.67-7.08,1.36-.25,2.72-.14,4.08-.17.89-.02.79.14.79-.82,0-5.26,0-10.51,0-15.77,0-2.59.14-5.17.54-7.73.53-3.45,1.52-6.76,2.96-9.93,2.11-4.62,5.05-8.66,8.65-12.23,3.14-3.12,6.64-5.75,10.6-7.75,4.32-2.18,8.88-3.47,13.69-3.95.59-.06,1.23.06,1.79-.24Zm2.57,58.43h0c7.47,0,14.95,0,22.42,0,1.08,0,.89.09.89-.85,0-5.69,0-11.37,0-17.06,0-1.83-.22-3.63-.64-5.4-.92-3.86-2.81-7.19-5.5-10.08-1.97-2.12-4.21-3.89-6.81-5.18-4.75-2.37-9.77-2.87-14.93-1.95-4.39.78-8.16,2.83-11.4,5.9-2.97,2.82-5.17,6.12-6.39,10.05-.69,2.23-1,4.53-1.02,6.86-.03,5.54-.01,11.08-.01,16.63,0,.24.01.48,0,.72-.01.28.11.4.38.38.14,0,.29,0,.43,0,7.52,0,15.05,0,22.57,0Z"/>
</svg>